<?xml version="1.0" encoding="UTF-8" standalone="no"?>
<svg
   id="_4"
   viewBox="0 0 12.289094 20.098518"
   version="1.1"
   sodipodi:docname="Icon-v1.svg"
   width="12.289094"
   height="20.098518"
   inkscape:version="1.4.2 (ebf0e940, 2025-05-08)"
   xmlns:inkscape="http://www.inkscape.org/namespaces/inkscape"
   xmlns:sodipodi="http://sodipodi.sourceforge.net/DTD/sodipodi-0.dtd"
   xmlns:xlink="http://www.w3.org/1999/xlink"
   xmlns="http://www.w3.org/2000/svg"
   xmlns:svg="http://www.w3.org/2000/svg">
  <sodipodi:namedview
     id="namedview122"
     pagecolor="#ffffff"
     bordercolor="#000000"
     borderopacity="0.25"
     inkscape:showpageshadow="2"
     inkscape:pageopacity="0.0"
     inkscape:pagecheckerboard="0"
     inkscape:deskcolor="#d1d1d1"
     inkscape:zoom="34.666667"
     inkscape:cx="11.870192"
     inkscape:cy="11.855769"
     inkscape:window-width="1656"
     inkscape:window-height="1187"
     inkscape:window-x="664"
     inkscape:window-y="239"
     inkscape:window-maximized="0"
     inkscape:current-layer="_4" />
  <defs
     id="defs78">
    <clipPath
       id="clippath">
      <path
         d="m 17.854,3.339 c 0,0 -0.552,-0.697 -1.821,-1.295 0,0 -0.513,-0.275 -1.023,0.122 L 7.478,7.801 c 0,0 -0.804,0.553 -0.78,0.883 0,0 -0.044,0.378 0.665,0.837 l 3.434,2.115 v 0.002 c -0.035,0.053 -0.584,0.873 -1.188,1.717 -0.224,0.313 -0.484,0.642 -0.694,0.912 -0.325,0.419 -0.59,0.784 -0.59,0.784 -0.161,0.278 0.277,0.558 0.277,0.558 0.873,0.646 1.428,0.807 1.428,0.807 0.498,0.169 0.728,-0.32 0.728,-0.32 l 1.624,-2.387 2.046,1.266 c 0,0 -1.865,1.292 -3.833,2.48 -3.716,2.244 -4.581,2.029 -4.688,2.533 0,0 -0.094,0.233 0.324,0.674 0,0 0.552,0.697 1.821,1.295 0,0 0.513,0.275 1.023,-0.122 L 16.607,16.2 c 0,0 0.804,-0.553 0.78,-0.883 0,0 0.044,-0.378 -0.665,-0.837 l -3.434,-2.114 v -0.002 c 0.034,-0.053 0.584,-0.873 1.188,-1.717 C 14.7,10.334 14.96,10.005 15.17,9.735 15.495,9.316 15.76,8.951 15.76,8.951 15.921,8.673 15.483,8.393 15.483,8.393 14.61,7.747 14.055,7.586 14.055,7.586 13.557,7.417 13.327,7.906 13.327,7.906 L 11.703,10.293 9.657,9.027 c 0,0 1.865,-1.292 3.833,-2.48 3.716,-2.244 4.58,-2.029 4.688,-2.533 0,0 0.094,-0.233 -0.324,-0.674 z"
         clip-rule="evenodd"
         fill="none"
         id="path1" />
    </clipPath>
    <linearGradient
       id="linear-gradient"
       x1="7.2329998"
       y1="8.1459999"
       x2="15.322"
       y2="2.0650001"
       gradientUnits="userSpaceOnUse">
      <stop
         offset="0"
         stop-color="#82f2f2"
         id="stop1" />
      <stop
         offset=".102"
         stop-color="#91f2f2"
         id="stop2" />
      <stop
         offset=".325"
         stop-color="#adf2f2"
         id="stop3" />
      <stop
         offset=".549"
         stop-color="#c1f2f2"
         id="stop4" />
      <stop
         offset=".774"
         stop-color="#cdf2f2"
         id="stop5" />
      <stop
         offset="1"
         stop-color="#d1f2f2"
         id="stop6" />
    </linearGradient>
    <linearGradient
       id="linear-gradient-2"
       x1="15.637"
       y1="8.9440002"
       x2="13.247"
       y2="12.19"
       gradientUnits="userSpaceOnUse">
      <stop
         offset="0"
         stop-color="#b4f2f2"
         id="stop7" />
      <stop
         offset=".255"
         stop-color="#b7f2f2"
         id="stop8" />
      <stop
         offset=".476"
         stop-color="#c2f4f4"
         id="stop9" />
      <stop
         offset=".684"
         stop-color="#d3f7f7"
         id="stop10" />
      <stop
         offset=".883"
         stop-color="#ecfbfb"
         id="stop11" />
      <stop
         offset="1"
         stop-color="#fff"
         id="stop12" />
    </linearGradient>
    <linearGradient
       id="linear-gradient-3"
       x1="10.704"
       y1="16.003"
       x2="12.437"
       y2="13.492"
       gradientUnits="userSpaceOnUse">
      <stop
         offset="0"
         stop-color="#c3f2f2"
         id="stop13" />
      <stop
         offset=".419"
         stop-color="#c1f0f0"
         id="stop14" />
      <stop
         offset=".57"
         stop-color="#baeaeb"
         id="stop15" />
      <stop
         offset=".677"
         stop-color="#aee0e3"
         id="stop16" />
      <stop
         offset=".764"
         stop-color="#9dd1d7"
         id="stop17" />
      <stop
         offset=".838"
         stop-color="#87bec8"
         id="stop18" />
      <stop
         offset=".904"
         stop-color="#6ca7b4"
         id="stop19" />
      <stop
         offset=".962"
         stop-color="#4c8b9e"
         id="stop20" />
      <stop
         offset=".996"
         stop-color="#37798f"
         id="stop21" />
    </linearGradient>
    <linearGradient
       id="linear-gradient-4"
       x1="6.6240001"
       y1="19.586"
       x2="9.4549999"
       y2="18.247999"
       gradientUnits="userSpaceOnUse">
      <stop
         offset="0"
         stop-color="#41f2f2"
         id="stop22" />
      <stop
         offset=".071"
         stop-color="#4ff2f2"
         id="stop23" />
      <stop
         offset=".716"
         stop-color="#ccfbfb"
         id="stop24" />
      <stop
         offset="1"
         stop-color="#fff"
         id="stop25" />
    </linearGradient>
    <linearGradient
       id="linear-gradient-5"
       x1="12.387"
       y1="16.254999"
       x2="14.633"
       y2="14.861"
       xlink:href="#linear-gradient-3" />
    <linearGradient
       id="linear-gradient-6"
       x1="9.5539999"
       y1="8.8950005"
       x2="9.0170002"
       y2="9.9130001"
       gradientUnits="userSpaceOnUse">
      <stop
         offset="0"
         stop-color="#8df2f2"
         id="stop26" />
      <stop
         offset=".153"
         stop-color="#88eced"
         id="stop27" />
      <stop
         offset=".35"
         stop-color="#7ddcdf"
         id="stop28" />
      <stop
         offset=".572"
         stop-color="#6ac1ca"
         id="stop29" />
      <stop
         offset=".81"
         stop-color="#4f9cab"
         id="stop30" />
      <stop
         offset="1"
         stop-color="#377a8f"
         id="stop31" />
    </linearGradient>
    <linearGradient
       id="linear-gradient-7"
       x1="5.8850002"
       y1="18.886999"
       x2="18.238001"
       y2="18.886999"
       gradientUnits="userSpaceOnUse">
      <stop
         offset=".193"
         stop-color="#154366"
         id="stop32" />
      <stop
         offset=".21"
         stop-color="#1c5071"
         id="stop33" />
      <stop
         offset=".252"
         stop-color="#2c6a89"
         id="stop34" />
      <stop
         offset=".301"
         stop-color="#39809d"
         id="stop35" />
      <stop
         offset=".358"
         stop-color="#4391ac"
         id="stop36" />
      <stop
         offset=".429"
         stop-color="#499db7"
         id="stop37" />
      <stop
         offset=".528"
         stop-color="#4da4bd"
         id="stop38" />
      <stop
         offset=".803"
         stop-color="#4fa6bf"
         id="stop39" />
      <stop
         offset=".844"
         stop-color="#60b7cb"
         id="stop40" />
      <stop
         offset=".947"
         stop-color="#87dee7"
         id="stop41" />
      <stop
         offset="1"
         stop-color="#97edf2"
         id="stop42" />
    </linearGradient>
    <linearGradient
       id="linear-gradient-8"
       x1="9.7880001"
       y1="15.476"
       x2="10.125"
       y2="15.26"
       gradientUnits="userSpaceOnUse">
      <stop
         offset="0"
         stop-color="#1f5270"
         id="stop43" />
      <stop
         offset=".096"
         stop-color="#336580"
         id="stop44" />
      <stop
         offset=".409"
         stop-color="#70a1b0"
         id="stop45" />
      <stop
         offset=".675"
         stop-color="#9dcdd4"
         id="stop46" />
      <stop
         offset=".88"
         stop-color="#b8e8e9"
         id="stop47" />
      <stop
         offset="1"
         stop-color="#c3f2f2"
         id="stop48" />
    </linearGradient>
    <linearGradient
       id="linear-gradient-9"
       x1="9.4040003"
       y1="8.9960003"
       x2="18.301001"
       y2="3.6259999"
       gradientUnits="userSpaceOnUse">
      <stop
         offset="0"
         stop-color="#4ea4ba"
         id="stop49" />
      <stop
         offset=".494"
         stop-color="#61bdcc"
         id="stop50" />
      <stop
         offset="1"
         stop-color="#78dbe2"
         id="stop51" />
    </linearGradient>
    <linearGradient
       id="linear-gradient-10"
       x1="6.4070001"
       y1="22.187"
       x2="17.32"
       y2="2.5090001"
       gradientUnits="userSpaceOnUse">
      <stop
         offset="0"
         stop-color="#2fd0f2"
         id="stop52" />
      <stop
         offset=".142"
         stop-color="#35d1f2"
         id="stop53" />
      <stop
         offset=".347"
         stop-color="#49d7f2"
         id="stop54" />
      <stop
         offset=".59"
         stop-color="#68dff2"
         id="stop55" />
      <stop
         offset=".86"
         stop-color="#93ebf2"
         id="stop56" />
      <stop
         offset="1"
         stop-color="#adf2f2"
         id="stop57" />
    </linearGradient>
    <linearGradient
       id="linear-gradient-11"
       x1="5.9970002"
       y1="11.996"
       x2="19.277"
       y2="12.005"
       gradientUnits="userSpaceOnUse">
      <stop
         offset="0"
         stop-color="#1f7887"
         id="stop58" />
      <stop
         offset=".255"
         stop-color="#217b8b"
         id="stop59" />
      <stop
         offset=".512"
         stop-color="#278797"
         id="stop60" />
      <stop
         offset=".769"
         stop-color="#329aab"
         id="stop61" />
      <stop
         offset="1"
         stop-color="#40b2c4"
         id="stop62" />
    </linearGradient>
    <filter
       id="luminosity-noclip"
       x="3.948"
       y="2.1689999"
       width="15.993"
       height="21.017"
       color-interpolation-filters="sRGB"
       filterUnits="userSpaceOnUse">
      <feFlood
         flood-color="#fff"
         result="bg"
         id="feFlood62" />
      <feBlend
         in="SourceGraphic"
         in2="bg"
         id="feBlend62"
         mode="normal" />
    </filter>
    <radialGradient
       id="radial-gradient"
       cx="15.252"
       cy="13.881"
       fx="15.252"
       fy="13.881"
       r="1.0190001"
       gradientUnits="userSpaceOnUse">
      <stop
         offset="0"
         stop-color="#231f20"
         id="stop63" />
      <stop
         offset=".37"
         stop-color="#231f20"
         stop-opacity=".909"
         id="stop64" />
      <stop
         offset=".667"
         stop-color="#231f20"
         stop-opacity=".623"
         id="stop65" />
      <stop
         offset=".938"
         stop-color="#231f20"
         stop-opacity=".142"
         id="stop66" />
      <stop
         offset="1"
         stop-color="#231f20"
         stop-opacity="0"
         id="stop67" />
    </radialGradient>
    <radialGradient
       id="radial-gradient-2"
       cx="13.428"
       cy="14.513"
       fx="13.428"
       fy="14.513"
       r="1.084"
       xlink:href="#radial-gradient" />
    <radialGradient
       id="radial-gradient-3"
       cx="16.045"
       cy="14.677"
       fx="16.045"
       fy="14.677"
       r="1.067"
       xlink:href="#radial-gradient" />
    <radialGradient
       id="radial-gradient-4"
       cx="15.043"
       cy="13.638"
       fx="15.043"
       fy="13.638"
       r="0.38600001"
       xlink:href="#radial-gradient" />
    <radialGradient
       id="radial-gradient-5"
       cx="14.457"
       cy="13.552"
       fx="14.457"
       fy="13.552"
       r="0.505"
       xlink:href="#radial-gradient" />
    <radialGradient
       id="radial-gradient-6"
       cx="14.593"
       cy="14.079"
       fx="14.593"
       fy="14.079"
       r="0.69300002"
       xlink:href="#radial-gradient" />
    <radialGradient
       id="radial-gradient-7"
       cx="14.488"
       cy="12.618"
       fx="14.488"
       fy="12.618"
       r="0.375"
       xlink:href="#radial-gradient" />
    <radialGradient
       id="radial-gradient-8"
       cx="16.288"
       cy="16.1"
       fx="16.288"
       fy="16.1"
       r="1.538"
       xlink:href="#radial-gradient" />
    <radialGradient
       id="radial-gradient-9"
       cx="14.116"
       cy="18.733999"
       fx="14.116"
       fy="18.733999"
       r="1.268"
       xlink:href="#radial-gradient" />
    <mask
       id="mask"
       x="3.948"
       y="2.169"
       width="15.993"
       height="21.017"
       maskUnits="userSpaceOnUse">
      <g
         filter="url(#luminosity-noclip)"
         id="g75">
        <path
           d="m 13.294,14.046 c 0.826,0.725 1.804,1.265 2.877,1.521 0.29,0.069 0.606,0.039 0.867,-0.113 0.233,-0.137 0.456,-0.404 0.517,-0.672 0.066,-0.288 0.051,-0.611 -0.113,-0.867 -0.156,-0.242 -0.385,-0.448 -0.672,-0.517 -0.302,-0.072 -0.596,-0.169 -0.882,-0.289 l 0.269,0.113 c -0.434,-0.186 -0.843,-0.424 -1.218,-0.711 l 0.228,0.176 c -0.096,-0.074 -0.189,-0.152 -0.28,-0.232 -0.226,-0.198 -0.487,-0.33 -0.795,-0.33 -0.276,0 -0.606,0.123 -0.795,0.33 -0.197,0.214 -0.343,0.496 -0.33,0.795 0.013,0.287 0.106,0.599 0.33,0.795 v 0 z"
           fill="url(#radial-gradient)"
           id="path67" />
        <path
           d="m 12.901,13.17 c -0.043,0.611 -0.066,1.227 -0.13,1.836 l 0.04,-0.299 c -0.009,0.069 -0.024,0.133 -0.049,0.199 l 0.113,-0.269 C 12.854,14.681 12.83,14.72 12.8,14.759 l 0.176,-0.228 C 12.944,14.568 12.91,14.6 12.873,14.63 l 0.228,-0.176 c -0.071,0.052 -0.145,0.092 -0.225,0.127 l 0.269,-0.113 c -0.228,0.093 -0.473,0.147 -0.716,0.19 -0.263,0.047 -0.542,0.295 -0.672,0.517 -0.141,0.241 -0.201,0.597 -0.113,0.867 0.088,0.272 0.257,0.535 0.517,0.672 0.281,0.149 0.554,0.169 0.867,0.113 0.367,-0.065 0.717,-0.168 1.053,-0.334 0.176,-0.087 0.343,-0.214 0.476,-0.358 0.194,-0.211 0.363,-0.484 0.416,-0.77 0.072,-0.39 0.082,-0.793 0.109,-1.189 l 0.07,-1.007 c 0.019,-0.276 -0.139,-0.605 -0.33,-0.795 -0.195,-0.195 -0.515,-0.342 -0.795,-0.33 -0.291,0.013 -0.593,0.109 -0.795,0.33 -0.21,0.229 -0.308,0.485 -0.33,0.795 v 0 z"
           fill="url(#radial-gradient-2)"
           id="path68" />
        <path
           d="m 14.756,13.214 c -0.095,1.069 0.048,2.183 0.405,3.195 0.098,0.279 0.255,0.519 0.517,0.672 0.241,0.141 0.597,0.201 0.867,0.113 0.272,-0.088 0.535,-0.257 0.672,-0.517 C 17.353,16.42 17.431,16.094 17.33,15.81 17.175,15.372 17.066,14.921 17,14.461 l 0.04,0.299 c -0.069,-0.514 -0.081,-1.031 -0.035,-1.548 0.024,-0.272 -0.143,-0.609 -0.33,-0.795 -0.195,-0.195 -0.515,-0.342 -0.795,-0.33 -0.291,0.013 -0.593,0.109 -0.795,0.33 -0.212,0.231 -0.302,0.483 -0.33,0.795 v 0 z"
           fill="url(#radial-gradient-3)"
           id="path69" />
        <path
           d="m 15.574,12.513 c -0.355,0 -0.709,0 -1.064,0 -0.155,-0.006 -0.299,0.026 -0.433,0.097 -0.139,0.045 -0.26,0.123 -0.362,0.233 -0.11,0.102 -0.187,0.223 -0.233,0.362 -0.07,0.134 -0.103,0.279 -0.097,0.433 l 0.04,0.299 c 0.053,0.191 0.15,0.356 0.289,0.496 l 0.228,0.176 c 0.175,0.102 0.365,0.153 0.568,0.154 h 1.064 c 0.155,0.006 0.299,-0.026 0.433,-0.097 0.139,-0.045 0.26,-0.123 0.362,-0.233 0.11,-0.102 0.187,-0.223 0.233,-0.362 0.07,-0.134 0.103,-0.279 0.097,-0.433 l -0.04,-0.299 c -0.053,-0.191 -0.15,-0.356 -0.289,-0.496 l -0.228,-0.176 c -0.175,-0.102 -0.365,-0.153 -0.568,-0.154 z"
           fill="url(#radial-gradient-4)"
           id="path70" />
        <path
           d="m 13.531,14.808 c 0.207,0.028 0.408,0.067 0.616,0.048 0.205,-0.019 0.421,-0.042 0.619,-0.107 0.139,-0.046 0.275,-0.108 0.408,-0.168 0.051,-0.023 0.101,-0.049 0.149,-0.078 0.087,-0.052 0.165,-0.115 0.245,-0.177 0.083,-0.064 0.166,-0.125 0.241,-0.198 0.11,-0.102 0.187,-0.223 0.233,-0.362 0.07,-0.134 0.103,-0.279 0.097,-0.433 0.006,-0.155 -0.026,-0.299 -0.097,-0.433 -0.045,-0.139 -0.123,-0.26 -0.233,-0.362 -0.214,-0.197 -0.496,-0.343 -0.795,-0.33 l -0.299,0.04 c -0.191,0.053 -0.356,0.15 -0.496,0.289 -0.04,0.039 -0.082,0.076 -0.127,0.11 l 0.228,-0.176 c -0.095,0.072 -0.197,0.131 -0.306,0.178 l 0.269,-0.113 c -0.121,0.051 -0.247,0.085 -0.378,0.103 l 0.299,-0.04 c -0.118,0.015 -0.236,0.015 -0.354,10e-4 l 0.299,0.04 -0.019,-0.003 c -0.15,-0.047 -0.299,-0.054 -0.449,-0.02 -0.15,0.007 -0.289,0.051 -0.418,0.134 -0.131,0.071 -0.236,0.167 -0.316,0.29 -0.099,0.109 -0.167,0.236 -0.201,0.383 l -0.04,0.299 c 0,0.203 0.052,0.392 0.154,0.568 l 0.176,0.228 c 0.14,0.139 0.306,0.236 0.496,0.289 v 0 z"
           fill="url(#radial-gradient-5)"
           id="path71" />
        <path
           d="m 14.35,15.407 c 0.4,-0.19 0.804,-0.372 1.212,-0.544 l -0.269,0.113 c 0.136,-0.057 0.273,-0.114 0.41,-0.169 0.146,-0.035 0.274,-0.102 0.383,-0.201 0.122,-0.079 0.219,-0.185 0.29,-0.316 0.082,-0.129 0.127,-0.269 0.134,-0.418 0.033,-0.15 0.027,-0.299 -0.02,-0.449 -0.088,-0.272 -0.257,-0.535 -0.517,-0.672 l -0.269,-0.113 c -0.199,-0.054 -0.399,-0.054 -0.598,0 -0.638,0.258 -1.27,0.531 -1.891,0.827 -0.131,0.071 -0.236,0.167 -0.316,0.29 -0.099,0.109 -0.167,0.236 -0.201,0.383 -0.047,0.15 -0.054,0.299 -0.02,0.449 0.007,0.15 0.051,0.289 0.134,0.418 0.155,0.24 0.385,0.452 0.672,0.517 l 0.299,0.04 c 0.203,0 0.392,-0.052 0.568,-0.154 v 0 z"
           fill="url(#radial-gradient-6)"
           id="path72" />
        <path
           d="m 14.97,13.672 c 0.135,-0.12 0.274,-0.235 0.416,-0.345 l -0.228,0.176 c 0.073,-0.056 0.147,-0.111 0.222,-0.165 0.131,-0.071 0.236,-0.167 0.316,-0.29 0.099,-0.109 0.167,-0.236 0.201,-0.383 0.047,-0.15 0.054,-0.299 0.02,-0.449 -0.007,-0.15 -0.051,-0.289 -0.134,-0.418 L 15.607,11.57 c -0.14,-0.139 -0.306,-0.236 -0.496,-0.289 l -0.299,-0.04 c -0.203,0 -0.392,0.052 -0.568,0.154 -0.299,0.215 -0.59,0.442 -0.866,0.686 -0.11,0.102 -0.187,0.223 -0.233,0.362 -0.07,0.134 -0.103,0.279 -0.097,0.433 -0.006,0.155 0.026,0.299 0.097,0.433 0.045,0.139 0.123,0.26 0.233,0.362 l 0.228,0.176 c 0.175,0.102 0.365,0.153 0.568,0.154 l 0.299,-0.04 c 0.191,-0.053 0.356,-0.15 0.496,-0.289 v 0 z"
           fill="url(#radial-gradient-7)"
           id="path73" />
        <path
           d="m 16.098,13.186 c -0.578,0.734 -1.243,1.394 -1.981,1.968 l 0.455,-0.352 c -0.285,0.22 -0.58,0.427 -0.884,0.62 -0.489,0.31 -0.878,0.779 -1.034,1.345 -0.094,0.299 -0.107,0.598 -0.04,0.897 0.014,0.299 0.103,0.578 0.267,0.837 0.31,0.48 0.771,0.903 1.345,1.034 0.578,0.132 1.219,0.1 1.734,-0.227 0.699,-0.444 1.365,-0.953 1.98,-1.507 0.487,-0.438 0.935,-0.918 1.34,-1.433 0.219,-0.204 0.374,-0.445 0.465,-0.724 0.141,-0.268 0.205,-0.557 0.194,-0.867 0.012,-0.31 -0.053,-0.599 -0.194,-0.867 C 19.654,13.631 19.499,13.39 19.28,13.186 18.851,12.792 18.288,12.5 17.689,12.527 l -0.598,0.08 c -0.381,0.107 -0.712,0.3 -0.993,0.579 z"
           fill="url(#radial-gradient-8)"
           id="path74" />
        <path
           d="m 15.784,20.917 c 0.164,-0.868 0.419,-1.715 0.762,-2.53 l -0.227,0.537 c 0.083,-0.194 0.17,-0.386 0.262,-0.576 0.164,-0.258 0.253,-0.537 0.267,-0.837 0.067,-0.299 0.054,-0.598 -0.04,-0.897 -0.07,-0.293 -0.204,-0.548 -0.403,-0.765 -0.159,-0.245 -0.369,-0.438 -0.631,-0.58 -0.522,-0.276 -1.155,-0.414 -1.734,-0.227 -0.532,0.172 -1.092,0.511 -1.345,1.034 -0.561,1.161 -1.011,2.375 -1.25,3.644 -0.094,0.299 -0.107,0.598 -0.04,0.897 0.014,0.299 0.103,0.578 0.267,0.837 0.141,0.262 0.335,0.473 0.58,0.631 0.217,0.199 0.472,0.333 0.765,0.403 0.576,0.131 1.222,0.103 1.734,-0.227 0.469,-0.303 0.926,-0.775 1.034,-1.345 v 0 z"
           fill="url(#radial-gradient-9)"
           id="path75" />
      </g>
    </mask>
    <clipPath
       id="clippath-1">
      <path
         d="M 8.49,21.764 C 8.323,21.764 8.201,21.704 8.2,21.703 8.196,21.701 8.191,21.699 8.187,21.697 6.996,21.136 6.463,20.482 6.457,20.476 6.452,20.47 6.447,20.464 6.441,20.458 6.205,20.209 6.185,20.071 6.183,20.044 6.184,20.04 6.185,20.036 6.186,20.032 6.19,20.012 6.195,19.991 6.27,19.944 6.373,19.88 6.554,19.805 6.804,19.702 c 0.655,-0.27 1.874,-0.772 3.96,-2.03 1.96,-1.182 3.843,-2.483 3.861,-2.496 0.077,-0.053 0.122,-0.142 0.119,-0.236 -0.002,-0.094 -0.052,-0.18 -0.131,-0.229 l -2.054,-1.27 C 12.514,13.413 12.465,13.4 12.415,13.4 c -0.088,0 -0.174,0.042 -0.227,0.12 l -1.63,2.394 c -0.009,0.013 -0.015,0.022 -0.021,0.037 -0.01,0.02 -0.108,0.199 -0.279,0.199 -0.036,0 -0.075,-0.007 -0.116,-0.021 C 10.138,16.128 10.135,16.127 10.131,16.126 10.111,16.12 9.588,15.954 8.784,15.359 8.778,15.355 8.775,15.352 8.769,15.348 8.684,15.293 8.602,15.202 8.585,15.159 8.652,15.067 8.882,14.754 9.152,14.407 9.187,14.362 9.223,14.316 9.26,14.268 9.449,14.025 9.664,13.75 9.855,13.484 c 0.613,-0.855 1.175,-1.693 1.198,-1.728 0.057,-0.086 0.063,-0.197 0.014,-0.287 V 11.467 C 11.043,11.424 11.009,11.388 10.968,11.363 L 7.524,9.245 C 7.027,8.923 6.988,8.68 6.985,8.655 c 0,-0.008 0,-0.016 0,-0.025 C 6.991,8.611 7.034,8.494 7.304,8.256 7.477,8.103 7.647,7.986 7.649,7.984 7.652,7.982 7.655,7.98 7.658,7.978 l 7.56,-5.649 c 0,0 0.003,-0.002 0.004,-0.003 0.135,-0.105 0.282,-0.158 0.439,-0.158 0.159,0 0.278,0.055 0.292,0.061 0.005,0.003 0.006,0.003 0.011,0.006 1.074,0.498 1.729,1.245 1.735,1.251 0.236,0.249 0.267,0.375 0.268,0.402 0,0.004 -0.002,0.008 -0.003,0.012 C 17.96,3.92 17.955,3.941 17.88,3.988 17.777,4.052 17.596,4.127 17.346,4.23 16.691,4.5 15.472,5.002 13.386,6.26 11.426,7.442 9.543,8.743 9.525,8.756 9.448,8.809 9.403,8.898 9.406,8.992 9.409,9.086 9.458,9.172 9.537,9.221 l 2.054,1.27 c 0.045,0.028 0.094,0.041 0.144,0.041 0.088,0 0.174,-0.042 0.227,-0.12 l 1.63,-2.394 c 0.009,-0.013 0.015,-0.022 0.021,-0.037 0.01,-0.02 0.108,-0.199 0.279,-0.199 0.036,0 0.075,0.007 0.116,0.021 0.004,0.001 0.007,0.002 0.011,0.003 0.02,0.006 0.543,0.172 1.347,0.767 0.006,0.004 0.009,0.007 0.015,0.011 0.085,0.055 0.167,0.146 0.184,0.189 -0.067,0.092 -0.297,0.405 -0.566,0.752 -0.034,0.043 -0.069,0.088 -0.105,0.135 -0.19,0.244 -0.406,0.52 -0.598,0.788 -0.6,0.837 -1.139,1.639 -1.198,1.728 -0.058,0.086 -0.063,0.198 -0.013,0.289 v 0.002 c 0.024,0.042 0.058,0.078 0.098,0.103 l 3.444,2.118 c 0.496,0.322 0.536,0.564 0.539,0.59 0,0.008 0,0.017 0,0.025 -0.006,0.019 -0.049,0.136 -0.319,0.374 -0.173,0.153 -0.343,0.27 -0.345,0.272 -0.003,0.002 -0.006,0.004 -0.009,0.006 l -7.56,5.649 c 0,0 -0.003,0.002 -0.004,0.003 -0.135,0.105 -0.282,0.158 -0.439,0.158 z"
         clip-rule="evenodd"
         fill="none"
         id="path76" />
    </clipPath>
    <linearGradient
       id="linear-gradient-12"
       x1="3.948"
       y1="13.504"
       x2="12.59"
       y2="13.504"
       gradientUnits="userSpaceOnUse">
      <stop
         offset="0"
         stop-color="#000"
         stop-opacity="0"
         id="stop76" />
      <stop
         offset=".5"
         stop-color="#000"
         id="stop77" />
      <stop
         offset="1"
         stop-color="#000"
         stop-opacity="0"
         id="stop78" />
    </linearGradient>
    <linearGradient
       id="linear-gradient-13"
       x1="6.1440001"
       y1="18.622"
       x2="12.59"
       y2="18.622"
       gradientTransform="matrix(0.944,0,0,0.7,1.017,6.397)"
       xlink:href="#linear-gradient-12" />
    <linearGradient
       id="linear-gradient-14"
       x1="9.6029997"
       y1="17.371"
       x2="12.667"
       y2="17.371"
       gradientTransform="matrix(0.944,0,0,0.7,1.017,6.397)"
       xlink:href="#linear-gradient-12" />
    <linearGradient
       id="linear-gradient-15"
       x1="4.6090002"
       y1="19.112"
       x2="7.6729999"
       y2="19.112"
       gradientTransform="matrix(0.992,0,0,0.571,0.795,8.889)"
       xlink:href="#linear-gradient-12" />
    <linearGradient
       id="linear-gradient-16"
       x1="10.859"
       y1="6.3270001"
       x2="13.923"
       y2="6.3270001"
       gradientTransform="matrix(0.173,0,0,1.367,6.876,12.186)"
       xlink:href="#linear-gradient-12" />
    <linearGradient
       id="linear-gradient-17"
       x1="5.9569998"
       y1="6.0609999"
       x2="9.0209999"
       y2="6.0609999"
       gradientTransform="matrix(0.256,0,0,1.47,7.794,11.051)"
       xlink:href="#linear-gradient-12" />
    <linearGradient
       id="linear-gradient-18"
       x1="3.118"
       y1="5.9530001"
       x2="6.1820002"
       y2="5.9530001"
       gradientTransform="matrix(0.256,0,0,1.639,9.222,9.479)"
       xlink:href="#linear-gradient-12" />
    <linearGradient
       id="linear-gradient-19"
       x1="0.58899999"
       y1="5.1939998"
       x2="3.6530001"
       y2="5.1939998"
       gradientTransform="matrix(0.249,0,0,1.639,11.117,10.063)"
       xlink:href="#linear-gradient-12" />
    <linearGradient
       id="linear-gradient-20"
       x1="-1.425"
       y1="4.757"
       x2="1.6390001"
       y2="4.757"
       gradientTransform="matrix(0.249,0,0,1.268,12.452,12.027)"
       xlink:href="#linear-gradient-12" />
    <linearGradient
       id="linear-gradient-21"
       x1="-6.8140001"
       y1="2.9549999"
       x2="-3.75"
       y2="2.9549999"
       gradientTransform="matrix(0.249,0,0,1.202,16.043,13.116)"
       xlink:href="#linear-gradient-12" />
    <linearGradient
       id="linear-gradient-22"
       x1="-10.65"
       y1="2.066"
       x2="-7.586"
       y2="2.066"
       gradientTransform="matrix(0.249,0,0,1.202,18.062,13.222)"
       xlink:href="#linear-gradient-12" />
    <linearGradient
       id="linear-gradient-23"
       x1="4.6690001"
       y1="18.892"
       x2="7.7340002"
       y2="18.892"
       gradientTransform="matrix(0.653,0,0,0.741,3.073,5.695)"
       xlink:href="#linear-gradient-12" />
    <linearGradient
       id="linear-gradient-24"
       x1="11.32"
       y1="15.435"
       x2="14.384"
       y2="15.435"
       gradientTransform="matrix(0.326,0,0,0.805,7.531,5.812)"
       xlink:href="#linear-gradient-12" />
    <linearGradient
       id="linear-gradient-25"
       x1="6.4130001"
       y1="17.302999"
       x2="9.4770002"
       y2="17.302999"
       gradientTransform="matrix(0.652,0,0,0.796,4.689,5.724)"
       xlink:href="#linear-gradient-12" />
    <linearGradient
       id="linear-gradient-26"
       x1="15.791"
       y1="10.389"
       x2="18.855"
       y2="10.389"
       gradientTransform="matrix(0.652,0,0,0.606,5.279,8.396)"
       xlink:href="#linear-gradient-12" />
    <linearGradient
       id="linear-gradient-27"
       x1="14.569"
       y1="10.902"
       x2="17.632999"
       y2="10.902"
       gradientTransform="matrix(0.168,0,0,0.793,13.348,6.374)"
       xlink:href="#linear-gradient-12" />
    <linearGradient
       id="linear-gradient-28"
       x1="9.5600004"
       y1="11.888"
       x2="12.624"
       y2="11.888"
       gradientTransform="matrix(0.163,0,0,1.009,13.508,3.254)"
       xlink:href="#linear-gradient-12" />
    <linearGradient
       id="linear-gradient-29"
       x1="4.6750002"
       y1="12.355"
       x2="7.7399998"
       y2="12.355"
       gradientTransform="matrix(0.163,0,0,1.053,13.539,2.628)"
       xlink:href="#linear-gradient-12" />
    <linearGradient
       id="linear-gradient-30"
       x1="1.226"
       y1="13.276"
       x2="4.29"
       y2="13.276"
       gradientTransform="matrix(0.163,0,0,0.69,13.695,8.059)"
       xlink:href="#linear-gradient-12" />
    <linearGradient
       id="linear-gradient-31"
       x1="-1.473"
       y1="12.761"
       x2="1.591"
       y2="12.761"
       gradientTransform="matrix(0.245,0,0,0.693,13.711,8.095)"
       xlink:href="#linear-gradient-12" />
    <linearGradient
       id="linear-gradient-32"
       x1="-3.4890001"
       y1="13.413"
       x2="-0.42500001"
       y2="13.413"
       gradientTransform="matrix(0.245,0,0,0.693,13.759,8.144)"
       xlink:href="#linear-gradient-12" />
    <linearGradient
       id="linear-gradient-33"
       x1="-6.921"
       y1="16.128"
       x2="-3.8570001"
       y2="16.128"
       gradientTransform="matrix(0.326,0,0,1.059,14.247,1.123)"
       xlink:href="#linear-gradient-12" />
    <linearGradient
       id="linear-gradient-34"
       x1="-12.164"
       y1="16.646999"
       x2="-9.1000004"
       y2="16.646999"
       gradientTransform="matrix(0.257,0,0,0.898,13.471,3.878)"
       xlink:href="#linear-gradient-12" />
    <linearGradient
       id="linear-gradient-35"
       x1="-16.893999"
       y1="18.139999"
       x2="-13.83"
       y2="18.139999"
       gradientTransform="matrix(0.664,0,0,0.859,18.898,4.151)"
       xlink:href="#linear-gradient-12" />
    <linearGradient
       id="linear-gradient-36"
       x1="-17.379"
       y1="18.156"
       x2="-14.315"
       y2="18.156"
       gradientTransform="matrix(0.326,0,0,0.882,13.245,3.66)"
       xlink:href="#linear-gradient-12" />
    <linearGradient
       id="linear-gradient-37"
       x1="-12.278"
       y1="17.813999"
       x2="-9.2130003"
       y2="17.813999"
       gradientTransform="matrix(0.245,0,0,0.951,12.663,2.976)"
       xlink:href="#linear-gradient-12" />
    <linearGradient
       inkscape:collect="always"
       xlink:href="#linear-gradient-3"
       id="linearGradient122"
       gradientUnits="userSpaceOnUse"
       x1="10.704"
       y1="16.003"
       x2="12.437"
       y2="13.492" />
    <linearGradient
       inkscape:collect="always"
       xlink:href="#linear-gradient-12"
       id="linearGradient123"
       gradientUnits="userSpaceOnUse"
       x1="3.948"
       y1="13.504"
       x2="12.59"
       y2="13.504" />
  </defs>
  <g
     id="copy"
     transform="translate(-5.8979531,-1.9512406)">
    <g
       clip-path="url(#clippath)"
       id="g95">
      <path
         d="m 17.854,3.339 c 0,0 -0.552,-0.697 -1.821,-1.295 0,0 -0.513,-0.275 -1.023,0.122 L 7.478,7.801 c 0,0 -0.804,0.553 -0.78,0.883 0,0 -0.044,0.378 0.665,0.837 l 3.434,2.115 v 0.002 c -0.035,0.053 -0.584,0.873 -1.188,1.717 -0.224,0.313 -0.484,0.642 -0.694,0.912 -0.325,0.419 -0.59,0.784 -0.59,0.784 -0.161,0.278 0.277,0.558 0.277,0.558 0.873,0.646 1.428,0.807 1.428,0.807 0.498,0.169 0.728,-0.32 0.728,-0.32 l 1.624,-2.387 2.046,1.266 c 0,0 -1.865,1.292 -3.833,2.48 -3.716,2.244 -4.581,2.029 -4.688,2.533 0,0 -0.094,0.233 0.324,0.674 0,0 0.552,0.697 1.821,1.295 0,0 0.513,0.275 1.023,-0.122 L 16.607,16.2 c 0,0 0.804,-0.553 0.78,-0.883 0,0 0.044,-0.378 -0.665,-0.837 l -3.434,-2.114 v -0.002 c 0.034,-0.053 0.584,-0.873 1.188,-1.717 C 14.7,10.334 14.96,10.005 15.17,9.735 15.495,9.316 15.76,8.951 15.76,8.951 15.921,8.673 15.483,8.393 15.483,8.393 14.61,7.747 14.055,7.586 14.055,7.586 13.557,7.417 13.327,7.906 13.327,7.906 L 11.703,10.293 9.657,9.027 c 0,0 1.865,-1.292 3.833,-2.48 3.716,-2.244 4.58,-2.029 4.688,-2.533 0,0 0.094,-0.233 -0.324,-0.674 z"
         fill="#37798f"
         fill-rule="evenodd"
         id="path78" />
      <path
         d="m 8.471,22.005 c -0.23,0 -0.396,-0.087 -0.397,-0.088 0,0 -10e-4,0 -0.002,-0.001 C 6.828,21.33 6.272,20.64 6.267,20.633 6.267,20.632 6.265,20.631 6.264,20.63 5.877,20.221 5.949,20.004 5.949,20.002 5.949,20 5.95,19.998 5.951,19.995 5.994,19.793 6.188,19.714 6.704,19.5 c 0.647,-0.267 1.851,-0.764 3.915,-2.01 1.946,-1.175 3.816,-2.469 3.835,-2.482 0.012,-0.008 0.019,-0.022 0.019,-0.037 0,-0.015 -0.008,-0.028 -0.021,-0.036 l -2.046,-1.266 c -0.007,-0.004 -0.015,-0.007 -0.023,-0.007 -0.014,0 -0.028,0.007 -0.036,0.019 l -1.624,2.387 c 0,0 -0.002,0.004 -0.003,0.006 -0.002,0.003 -0.16,0.33 -0.486,0.33 -0.06,0 -0.124,-0.011 -0.189,-0.033 0,0 -10e-4,0 -0.002,0 -0.005,-0.002 -0.559,-0.168 -1.414,-0.801 0,0 -0.002,-10e-4 -0.003,-0.002 -0.004,-0.003 -0.4,-0.259 -0.264,-0.497 0.021,-0.029 0.278,-0.383 0.587,-0.781 0.035,-0.045 0.071,-0.091 0.108,-0.139 0.187,-0.24 0.399,-0.512 0.587,-0.775 0.607,-0.849 1.166,-1.683 1.19,-1.718 0.009,-0.014 0.01,-0.031 0.002,-0.045 v -0.002 c -0.005,-0.007 -0.01,-0.012 -0.017,-0.017 L 7.385,9.479 C 6.715,9.045 6.741,8.688 6.741,8.684 c 0,-0.002 0,-0.005 0,-0.008 -0.018,-0.25 0.544,-0.694 0.762,-0.844 0,0 7.534,-5.636 7.534,-5.636 0.176,-0.137 0.37,-0.206 0.579,-0.206 0.23,0 0.396,0.087 0.397,0.088 0,0 10e-4,0 0.002,0.001 1.244,0.586 1.8,1.276 1.805,1.283 0,10e-4 0.002,0.002 0.003,0.003 0.387,0.409 0.315,0.626 0.315,0.628 0,0.002 -0.001,0.004 -0.002,0.007 -0.043,0.202 -0.237,0.281 -0.753,0.495 -0.647,0.267 -1.851,0.764 -3.914,2.01 C 11.523,7.68 9.653,8.974 9.634,8.987 9.622,8.995 9.615,9.009 9.615,9.024 c 0,0.015 0.008,0.028 0.021,0.036 l 2.046,1.266 c 0.007,0.004 0.015,0.007 0.023,0.007 0.014,0 0.028,-0.007 0.036,-0.019 l 1.624,-2.387 c 0,0 0.002,-0.004 0.003,-0.006 0.002,-0.003 0.16,-0.33 0.486,-0.33 0.06,0 0.124,0.011 0.189,0.033 0,0 0.001,0 0.002,0 0.005,0.002 0.559,0.168 1.414,0.801 0,0 0.002,10e-4 0.003,0.002 0.004,0.003 0.399,0.259 0.264,0.497 -0.021,0.029 -0.278,0.383 -0.587,0.781 -0.034,0.043 -0.069,0.088 -0.105,0.135 -0.188,0.241 -0.401,0.515 -0.59,0.779 -0.595,0.831 -1.131,1.63 -1.19,1.718 -0.009,0.014 -0.01,0.031 -0.002,0.045 v 0.002 c 0.005,0.007 0.01,0.012 0.016,0.016 l 3.434,2.114 c 0.67,0.434 0.645,0.791 0.644,0.795 0,0.002 0,0.005 0,0.008 0.018,0.25 -0.544,0.694 -0.762,0.844 0,0 0,0 -0.001,10e-4 l -7.532,5.635 c -0.176,0.137 -0.37,0.206 -0.579,0.206 z"
         fill="#ffffff"
         fill-rule="evenodd"
         id="path79" />
      <path
         d="M 15.063,2.32 7.309,8.281 6.982,8.718 c 0,0 -0.898,-0.025 -0.336,-0.462 0.562,-0.437 3.887,-2.972 3.887,-2.972 L 13.11,3.395 14.925,2.27 c 0,0 0.369,-0.194 0.138,0.05 z"
         fill="url(#linear-gradient)"
         fill-rule="evenodd"
         id="path80"
         style="fill:url(#linear-gradient)" />
      <path
         d="m 15.057,2.499 c 0,0 0.444,-0.496 0.052,-0.362 l -0.254,0.037 c 0,0 0.484,-0.178 0.519,-0.183 0.101,-0.015 0.567,0.019 -0.317,0.507 z m 2.894,1.489 C 18.259,3.971 17.96,4.26 17.96,4.26 18.326,3.918 18.007,3.91 18.007,3.91 l -0.204,0.048 c -0.213,0.131 0.147,0.03 0.147,0.03 z m -5.935,6.481 c -0.272,0 -0.312,-0.33 -0.312,-0.33 -0.073,0.323 0.136,0.483 0.136,0.483 l 0.175,-0.153 z M 13.804,7.831 C 13.95,7.566 13.681,7.613 13.644,7.616 13.607,7.619 13.387,7.813 13.387,7.813 13.662,7.62 13.679,7.691 13.72,7.724 13.761,7.757 13.636,7.98 13.636,7.98 13.711,7.958 13.664,8.085 13.804,7.831 Z m 1.656,1.071 c 0.232,-0.084 0.243,0.073 0.243,0.073 0.129,-0.28 -0.292,-0.136 -0.292,-0.136 0,-0.011 -0.197,0.152 0.049,0.063 z m -2.242,3.384 c 0.168,0.034 0.213,-0.131 0.213,-0.131 -0.231,0.146 -0.209,-0.157 -0.209,-0.157 -0.146,0.194 -0.004,0.287 -0.004,0.287 z m 3.888,3.15 c 0.31,-0.142 0.146,0.088 0.224,0.257 0.006,0.012 0.022,-0.302 0.022,-0.302 0.02,-0.175 -0.22,-0.052 -0.22,-0.052 -0.302,0.086 -0.026,0.097 -0.026,0.097 z"
         fill="#97edf2"
         fill-rule="evenodd"
         id="path81" />
      <path
         d="m 15.531,9.253 0.101,-0.194 c 0,0 0.019,-0.166 -0.116,-0.084 0,0 -0.675,0.897 -0.761,1.002 -0.086,0.105 -1.22,1.787 -1.41,2.082 0,0 -0.067,0.175 0.082,-0.045 0,0 0.888,-1.246 1.022,-1.437 0.134,-0.191 0.743,-0.925 1.082,-1.325 z"
         fill="url(#linear-gradient-2)"
         fill-rule="evenodd"
         id="path82"
         style="fill:url(#linear-gradient-2)" />
      <path
         d="m 10.339,16.189 c 0,0 0.054,-0.037 0.162,-0.093 0.041,-0.021 0.112,-0.047 0.161,-0.072 0.027,-0.013 0.068,-0.065 0.086,-0.096 0.171,-0.275 0.889,-1.357 0.889,-1.357 l 0.487,-0.761 c 0,0 0.09,-0.17 0.101,-0.265 0.011,-0.095 0.162,-0.2 0.162,-0.2 l 0.157,0.341 c 0,0 -0.19,-0.017 -0.347,0.196 -0.157,0.213 -1.511,2.183 -1.511,2.183 0,0 -0.052,0.229 -0.19,0.241 -0.165,0.013 -0.274,0 -0.157,-0.118 z"
         fill="url(#linear-gradient-3)"
         fill-rule="evenodd"
         id="path83"
         style="fill:url(#linearGradient122)" />
      <path
         d="m 6.212,20.041 c 0,0 -0.1,-0.07 0.062,-0.19 0.094,-0.07 0.1,-0.21 -0.228,-0.037 0,0 -0.047,-0.334 0.247,-0.452 0.294,-0.118 2.023,-0.814 2.023,-0.814 l 1.813,-1.066 -0.046,0.248 -1.981,1.209 c 0,0 -0.317,0.216 0.019,0.071 0.546,-0.236 1.897,-0.802 2.239,-1.056 0,0 -0.113,0.359 -0.575,0.586 -0.462,0.227 -3.299,1.452 -3.299,1.452 l -0.273,0.049 z m -0.045,0.068 c -0.072,-0.174 0.054,-0.237 0.015,-0.297 -0.051,-0.078 -0.225,0.114 -0.225,0.114 -0.039,0.195 0.249,0.277 0.21,0.183 z"
         fill="url(#linear-gradient-4)"
         fill-rule="evenodd"
         id="path84"
         style="fill:url(#linear-gradient-4)" />
      <path
         d="m 14.344,14.745 0.008,0.378 -1.738,1.217 1.36,-0.873 c 0,0 0.495,-0.294 0.73,-0.361 0.235,-0.067 0.092,-0.663 -0.361,-0.361 z"
         fill="url(#linear-gradient-5)"
         fill-rule="evenodd"
         id="path85"
         style="fill:url(#linear-gradient-5)" />
      <path
         d="m 12.97,8.253 0.442,-0.442 c 0,0 0.369,-0.224 0.168,0.179 l -0.375,0.744 -1.242,1.724 c 0,0 -0.213,-0.162 -0.168,-0.414 z"
         fill="#5eb5c8"
         fill-rule="evenodd"
         id="path86" />
      <path
         d="m 10.619,11.723 c 0,0 0.246,-0.33 0.313,-0.302 0.067,0.028 0.252,0.213 0.252,0.241 0,0.028 -1.002,1.634 -1.002,1.634 l -1.259,1.612 -0.358,0.425 -0.414,-0.168 0.28,-0.638 z"
         fill="#3b91ad"
         fill-rule="evenodd"
         id="path87" />
      <path
         d="m 6.782,8.421 c 0,0 0.487,-0.347 0.518,-0.372 0.031,-0.025 0.336,-0.218 -0.036,0.162 0,0 -0.364,0.313 -0.288,0.467 0.042,0.085 1.262,0.888 2.353,1.595 0.893,0.578 1.699,1.092 1.699,1.092 0,0 0.209,0.134 0.026,0.493 l -0.121,0.006 c 0,0 0.134,-0.165 -0.05,-0.187 L 10.696,11.834 6.848,9.315 c 0,0 -0.476,-0.529 -0.064,-0.893 z"
         fill="url(#linear-gradient-6)"
         fill-rule="evenodd"
         id="path88"
         style="fill:url(#linear-gradient-6)" />
      <path
         d="m 12.378,13.727 c 0,0 0.019,-0.216 -0.272,-0.175 0,0 0.224,-0.332 0.481,-0.142 0.157,0.116 2.059,1.159 2.059,1.159 0,0 0.383,0.311 0.031,0.646 l -0.168,0.108 c 0,0 0.198,-0.269 -0.119,-0.384 -0.252,-0.092 -2.011,-1.213 -2.011,-1.213 z"
         fill="#37798f"
         fill-rule="evenodd"
         id="path89" />
      <path
         d="m 5.918,20.359 c 0,0 -0.088,-0.256 0.024,-0.392 0,0 0.198,-0.266 0.199,0.066 0.001,0.373 2.222,1.708 2.424,1.574 0.201,-0.134 3.067,-2.143 3.067,-2.143 l 4.953,-3.727 0.468,-0.207 c 0,0 0.392,-0.287 0.093,0.168 l -0.735,0.929 -4.735,3.604 -2.653,1.88 -0.739,0.224 -1.175,-0.571 -1.192,-1.405 z"
         fill="url(#linear-gradient-7)"
         fill-rule="evenodd"
         id="path90"
         style="fill:url(#linear-gradient-7)" />
      <path
         d="m 10.367,16.419 c 0,0 0.224,-0.081 0.257,-0.196 0,0 0.123,-0.271 -0.162,-0.106 0,0 -0.182,0.078 -0.465,-0.048 -0.283,-0.126 -1.349,-0.882 -1.349,-0.882 0,0 -0.076,0.036 -0.148,-0.053 -0.013,-0.016 -0.154,-0.106 -0.179,-0.042 -0.025,0.064 -0.034,0.129 -0.02,0.26 0.014,0.131 0.126,0.277 0.126,0.277 0,0 1.609,1.17 1.939,0.789 z"
         fill="url(#linear-gradient-8)"
         fill-rule="evenodd"
         id="path91"
         style="fill:url(#linear-gradient-8)" />
      <path
         d="m 9.746,9.036 c 0,0 -0.185,-0.034 -0.274,-0.241 L 9.554,8.733 9.591,8.856 c 0,0 0.049,0.138 0.16,0.045 0,0 -0.213,-0.03 -0.112,-0.216 L 9.877,8.414 c 0,0 6.288,-4.105 7.505,-4.273 L 17.81,4.009 c 0,0 0.448,0.011 0.078,0.243 0,0 -1.019,0.46 -1.287,0.703 -0.268,0.243 -2.871,1.52 -2.871,1.52 l -2.174,1.36 -1.811,1.201 z"
         fill="url(#linear-gradient-9)"
         fill-rule="evenodd"
         id="path92"
         style="fill:url(#linear-gradient-9)" />
      <path
         d="M 8.49,21.808 C 8.312,21.808 8.18,21.743 8.179,21.742 8.176,21.74 8.172,21.738 8.168,21.737 6.969,21.173 6.428,20.51 6.423,20.504 6.419,20.499 6.415,20.494 6.41,20.489 6.169,20.235 6.143,20.087 6.14,20.048 c 0,-0.005 0,-0.009 0.001,-0.014 0,-0.003 0.002,-0.007 0.002,-0.01 0.008,-0.039 0.027,-0.068 0.104,-0.116 0.106,-0.066 0.288,-0.141 0.54,-0.245 0.654,-0.269 1.871,-0.771 3.954,-2.028 1.943,-1.172 3.84,-2.481 3.859,-2.495 0.065,-0.045 0.102,-0.119 0.1,-0.198 -0.002,-0.079 -0.043,-0.152 -0.11,-0.193 l -2.054,-1.27 c -0.036,-0.022 -0.078,-0.034 -0.121,-0.034 -0.076,0 -0.148,0.038 -0.191,0.101 l -1.63,2.394 c -0.009,0.013 -0.012,0.019 -0.017,0.03 0,0 0,10e-4 -10e-4,0.002 -0.012,0.023 -0.121,0.223 -0.318,0.223 -0.04,0 -0.084,-0.008 -0.13,-0.024 C 10.124,16.17 10.123,16.169 10.119,16.168 10.096,16.161 9.569,15.994 8.758,15.394 8.753,15.391 8.75,15.388 8.745,15.385 8.657,15.328 8.565,15.232 8.543,15.175 8.538,15.161 8.54,15.145 8.548,15.133 8.613,15.044 8.845,14.728 9.115,14.38 9.15,14.335 9.186,14.289 9.223,14.241 c 0.189,-0.242 0.403,-0.517 0.594,-0.783 0.615,-0.858 1.174,-1.692 1.198,-1.727 0.049,-0.073 0.053,-0.165 0.012,-0.242 v -0.002 c -0.02,-0.036 -0.049,-0.066 -0.084,-0.088 L 7.499,9.281 C 6.996,8.955 6.945,8.705 6.94,8.659 c 0,-0.002 0,-0.005 0,-0.007 0,-0.007 0,-0.014 0,-0.021 0,-0.005 0,-0.009 0.002,-0.014 C 6.951,8.585 7.003,8.462 7.274,8.223 7.446,8.071 7.616,7.953 7.623,7.948 7.626,7.946 7.628,7.944 7.631,7.943 l 7.56,-5.649 0.003,-0.003 c 0.143,-0.111 0.299,-0.167 0.466,-0.167 0.169,0 0.297,0.059 0.311,0.066 0,0 0.002,0 0.002,10e-4 0.002,0.001 0.003,0.002 0.005,0.003 l 0.003,0.002 c 1.199,0.564 1.74,1.227 1.745,1.233 0.004,0.005 0.008,0.01 0.013,0.015 0.241,0.254 0.267,0.402 0.27,0.441 0,0.005 0,0.009 -0.001,0.014 0,0.003 -0.002,0.007 -0.002,0.01 -0.008,0.039 -0.027,0.068 -0.104,0.116 -0.107,0.066 -0.288,0.141 -0.54,0.245 -0.654,0.269 -1.871,0.771 -3.954,2.027 -1.959,1.181 -3.84,2.482 -3.859,2.495 -0.065,0.045 -0.102,0.119 -0.1,0.198 0.002,0.079 0.043,0.152 0.11,0.193 l 2.054,1.27 c 0.036,0.022 0.078,0.034 0.121,0.034 0.076,0 0.148,-0.038 0.191,-0.101 l 1.63,-2.394 c 0.009,-0.013 0.012,-0.019 0.017,-0.03 0,0 0,-10e-4 0.001,-0.002 0.012,-0.023 0.121,-0.223 0.318,-0.223 0.04,0 0.084,0.008 0.13,0.024 0.004,10e-4 0.005,0.002 0.009,0.003 0.023,0.007 0.551,0.174 1.361,0.774 0.005,0.003 0.008,0.006 0.013,0.009 0.088,0.057 0.18,0.153 0.202,0.21 0.005,0.014 0.003,0.03 -0.005,0.042 C 15.536,8.887 15.304,9.203 15.034,9.552 15,9.595 14.965,9.64 14.929,9.687 c -0.19,0.244 -0.405,0.52 -0.597,0.787 -0.598,0.835 -1.138,1.638 -1.198,1.727 -0.049,0.073 -0.053,0.166 -0.011,0.244 v 0 c 0.02,0.037 0.048,0.067 0.082,0.088 l 3.444,2.118 c 0.503,0.326 0.554,0.575 0.559,0.622 0,0.002 0,0.005 0,0.007 0,0.007 0,0.014 0,0.021 0,0.005 0,0.009 -0.002,0.014 -0.009,0.032 -0.061,0.155 -0.332,0.394 -0.174,0.154 -0.347,0.274 -0.349,0.275 -0.002,0.002 -0.005,0.004 -0.007,0.005 l -7.56,5.649 -0.003,0.003 c -0.143,0.111 -0.299,0.167 -0.466,0.167 z"
         fill="#ffffff"
         fill-rule="evenodd"
         id="path93" />
      <path
         d="M 8.49,21.764 C 8.323,21.764 8.201,21.704 8.2,21.703 8.196,21.701 8.191,21.699 8.187,21.697 6.996,21.136 6.463,20.482 6.457,20.476 6.452,20.47 6.447,20.464 6.441,20.458 6.205,20.209 6.185,20.071 6.183,20.044 6.184,20.04 6.185,20.036 6.186,20.032 6.19,20.012 6.195,19.991 6.27,19.944 6.373,19.88 6.554,19.805 6.804,19.702 c 0.655,-0.27 1.874,-0.772 3.96,-2.03 1.96,-1.182 3.843,-2.483 3.861,-2.496 0.077,-0.053 0.122,-0.142 0.119,-0.236 -0.002,-0.094 -0.052,-0.18 -0.131,-0.229 l -2.054,-1.27 C 12.514,13.413 12.465,13.4 12.415,13.4 c -0.088,0 -0.174,0.042 -0.227,0.12 l -1.63,2.394 c -0.009,0.013 -0.015,0.022 -0.021,0.037 -0.01,0.02 -0.108,0.199 -0.279,0.199 -0.036,0 -0.075,-0.007 -0.116,-0.021 C 10.138,16.128 10.135,16.127 10.131,16.126 10.111,16.12 9.588,15.954 8.784,15.359 8.778,15.355 8.775,15.352 8.769,15.348 8.684,15.293 8.602,15.202 8.585,15.159 8.652,15.067 8.882,14.754 9.152,14.407 9.187,14.362 9.223,14.316 9.26,14.268 9.449,14.025 9.664,13.75 9.855,13.484 c 0.613,-0.855 1.175,-1.693 1.198,-1.728 0.057,-0.086 0.063,-0.197 0.014,-0.287 V 11.467 C 11.043,11.424 11.009,11.388 10.968,11.363 L 7.524,9.245 C 7.027,8.923 6.988,8.68 6.985,8.655 c 0,-0.008 0,-0.016 0,-0.025 C 6.991,8.611 7.034,8.494 7.304,8.256 7.477,8.103 7.647,7.986 7.649,7.984 7.652,7.982 7.655,7.98 7.658,7.978 l 7.56,-5.649 c 0,0 0.003,-0.002 0.004,-0.003 0.135,-0.105 0.282,-0.158 0.439,-0.158 0.159,0 0.278,0.055 0.292,0.061 0.005,0.003 0.006,0.003 0.011,0.006 1.074,0.498 1.729,1.245 1.735,1.251 0.236,0.249 0.267,0.375 0.268,0.402 0,0.004 -0.002,0.008 -0.003,0.012 C 17.96,3.92 17.955,3.941 17.88,3.988 17.777,4.052 17.596,4.127 17.346,4.23 16.691,4.5 15.472,5.002 13.386,6.26 11.426,7.442 9.543,8.743 9.525,8.756 9.448,8.809 9.403,8.898 9.406,8.992 9.409,9.086 9.458,9.172 9.537,9.221 l 2.054,1.27 c 0.045,0.028 0.094,0.041 0.144,0.041 0.088,0 0.174,-0.042 0.227,-0.12 l 1.63,-2.394 c 0.009,-0.013 0.015,-0.022 0.021,-0.037 0.01,-0.02 0.108,-0.199 0.279,-0.199 0.036,0 0.075,0.007 0.116,0.021 0.004,0.001 0.007,0.002 0.011,0.003 0.02,0.006 0.543,0.172 1.347,0.767 0.006,0.004 0.009,0.007 0.015,0.011 0.085,0.055 0.167,0.146 0.184,0.189 -0.067,0.092 -0.297,0.405 -0.566,0.752 -0.034,0.043 -0.069,0.088 -0.105,0.135 -0.19,0.244 -0.406,0.52 -0.598,0.788 -0.6,0.837 -1.139,1.639 -1.198,1.728 -0.058,0.086 -0.063,0.198 -0.013,0.289 v 0.002 c 0.024,0.042 0.058,0.078 0.098,0.103 l 3.444,2.118 c 0.496,0.322 0.536,0.564 0.539,0.59 0,0.008 0,0.017 0,0.025 -0.006,0.019 -0.049,0.136 -0.319,0.374 -0.173,0.153 -0.343,0.27 -0.345,0.272 -0.003,0.002 -0.006,0.004 -0.009,0.006 l -7.56,5.649 c 0,0 -0.003,0.002 -0.004,0.003 -0.135,0.105 -0.282,0.158 -0.439,0.158 z"
         fill="url(#linear-gradient-10)"
         fill-rule="evenodd"
         id="path94"
         style="fill:url(#linear-gradient-10)" />
      <path
         d="m 17.854,3.339 c 0,0 -0.552,-0.697 -1.821,-1.295 0,0 -0.513,-0.275 -1.023,0.122 L 7.478,7.801 c 0,0 -0.804,0.553 -0.78,0.883 0,0 -0.044,0.378 0.665,0.837 l 3.434,2.115 v 0.002 c -0.035,0.053 -0.584,0.873 -1.188,1.717 -0.224,0.313 -0.484,0.642 -0.694,0.912 -0.325,0.419 -0.59,0.784 -0.59,0.784 -0.161,0.278 0.277,0.558 0.277,0.558 0.873,0.646 1.428,0.807 1.428,0.807 0.498,0.169 0.728,-0.32 0.728,-0.32 l 1.624,-2.387 2.046,1.266 c 0,0 -1.865,1.292 -3.833,2.48 -3.716,2.244 -4.581,2.029 -4.688,2.533 0,0 -0.094,0.233 0.324,0.674 0,0 0.552,0.697 1.821,1.295 0,0 0.513,0.275 1.023,-0.122 L 16.607,16.2 c 0,0 0.804,-0.553 0.78,-0.883 0,0 0.044,-0.378 -0.665,-0.836 l -3.434,-2.114 v -0.002 c 0.034,-0.053 0.584,-0.873 1.188,-1.717 C 14.7,10.335 14.96,10.006 15.17,9.736 15.495,9.317 15.76,8.952 15.76,8.952 15.921,8.674 15.483,8.394 15.483,8.394 14.61,7.748 14.055,7.587 14.055,7.587 13.557,7.418 13.327,7.907 13.327,7.907 L 11.703,10.294 9.657,9.028 c 0,0 1.865,-1.292 3.833,-2.48 3.716,-2.244 4.58,-2.029 4.688,-2.533 0,0 0.094,-0.233 -0.324,-0.674 z m 0.282,0.658 c 0,0 -10e-4,0.004 -0.002,0.007 C 18.091,4.206 17.897,4.285 17.381,4.499 16.734,4.766 15.53,5.263 13.467,6.509 11.521,7.684 9.651,8.978 9.632,8.991 9.62,8.999 9.613,9.013 9.613,9.028 c 0,0.015 0.008,0.028 0.021,0.036 l 2.046,1.266 c 0.007,0.004 0.015,0.007 0.023,0.007 0.014,0 0.028,-0.007 0.036,-0.019 l 1.624,-2.387 c 0,0 0.002,-0.004 0.003,-0.006 0.002,-0.003 0.16,-0.33 0.486,-0.33 0.06,0 0.124,0.011 0.189,0.033 0,0 10e-4,0 0.002,0 0.005,0.002 0.559,0.168 1.414,0.801 0,0 0.002,10e-4 0.003,0.002 0.004,0.003 0.399,0.259 0.264,0.497 -0.021,0.029 -0.278,0.383 -0.587,0.781 -0.034,0.043 -0.069,0.088 -0.105,0.135 -0.188,0.241 -0.401,0.515 -0.59,0.779 -0.595,0.831 -1.131,1.63 -1.19,1.718 -0.009,0.014 -0.01,0.031 -0.002,0.045 v 0.002 c 0.005,0.007 0.01,0.012 0.016,0.016 l 3.434,2.114 c 0.67,0.434 0.645,0.791 0.644,0.795 0,0.002 0,0.005 0,0.008 0.018,0.25 -0.544,0.694 -0.762,0.844 0,0 0,0 -0.001,0.001 l -7.532,5.635 c -0.176,0.137 -0.37,0.206 -0.579,0.206 -0.23,0 -0.396,-0.087 -0.397,-0.088 0,0 -0.001,0 -0.002,-0.001 -1.244,-0.586 -1.8,-1.276 -1.805,-1.283 0,-0.001 -0.002,-0.002 -0.003,-0.003 -0.387,-0.409 -0.315,-0.626 -0.315,-0.628 0,-0.002 10e-4,-0.004 0.002,-0.007 0.043,-0.202 0.237,-0.281 0.753,-0.495 0.647,-0.267 1.851,-0.764 3.915,-2.01 1.946,-1.175 3.816,-2.469 3.835,-2.482 0.012,-0.008 0.019,-0.022 0.019,-0.037 0,-0.015 -0.008,-0.028 -0.021,-0.036 l -2.046,-1.266 c -0.007,-0.004 -0.015,-0.007 -0.023,-0.007 -0.014,0 -0.028,0.007 -0.036,0.019 l -1.624,2.387 c 0,0 -0.002,0.004 -0.003,0.006 -0.002,0.003 -0.16,0.33 -0.486,0.33 -0.06,0 -0.124,-0.011 -0.189,-0.033 0,0 -0.001,0 -0.002,0 -0.005,-0.002 -0.559,-0.168 -1.414,-0.801 0,0 -0.002,-10e-4 -0.003,-0.002 -0.004,-0.003 -0.4,-0.259 -0.264,-0.497 0.021,-0.029 0.278,-0.383 0.587,-0.781 0.035,-0.045 0.071,-0.091 0.108,-0.139 0.187,-0.24 0.399,-0.512 0.587,-0.775 0.607,-0.849 1.166,-1.683 1.19,-1.718 0.009,-0.014 0.01,-0.031 0.002,-0.045 V 11.613 C 10.83,11.606 10.825,11.601 10.818,11.596 L 7.384,9.481 C 6.714,9.047 6.74,8.69 6.74,8.686 c 0,-0.002 0,-0.005 0,-0.008 -0.018,-0.25 0.544,-0.694 0.762,-0.844 0,0 7.534,-5.636 7.534,-5.636 0.176,-0.137 0.37,-0.206 0.579,-0.206 0.23,0 0.396,0.087 0.397,0.088 0,0 0.001,0 0.002,10e-4 1.244,0.586 1.8,1.276 1.805,1.283 0,0.001 0.002,0.002 0.003,0.003 0.387,0.409 0.315,0.626 0.315,0.628 z"
         fill="url(#linear-gradient-11)"
         fill-rule="evenodd"
         id="path95"
         style="fill:url(#linear-gradient-11)" />
    </g>
  </g>
  <g
     mask="url(#mask)"
     id="g122"
     transform="translate(-5.8979531,-1.9512406)">
    <g
       opacity="0.4"
       id="g121">
      <g
         clip-path="url(#clippath-1)"
         id="g120">
        <rect
           x="3.948"
           y="3.822"
           width="8.6420002"
           height="19.365"
           fill="url(#linear-gradient-12)"
           opacity="0.34"
           id="rect95"
           style="fill:url(#linearGradient123)" />
        <rect
           x="6.8179998"
           y="16.243999"
           width="6.0879998"
           height="6.3930001"
           transform="rotate(8.42,9.8652049,19.440675)"
           fill="url(#linear-gradient-13)"
           opacity="0.31"
           id="rect96"
           style="fill:url(#linear-gradient-13)" />
        <rect
           x="10.085"
           y="16.298"
           width="2.8940001"
           height="4.5320001"
           fill="url(#linear-gradient-14)"
           opacity="0.48"
           id="rect97"
           style="fill:url(#linear-gradient-14)" />
        <rect
           x="5.369"
           y="17.948"
           width="3.0409999"
           height="3.6919999"
           transform="rotate(15.801,6.8892684,19.793373)"
           fill="url(#linear-gradient-15)"
           opacity="0.22"
           id="rect98"
           style="fill:url(#linear-gradient-15)" />
        <rect
           x="8.7600002"
           y="16.413"
           width="0.53200001"
           height="8.8450003"
           transform="rotate(88.607,9.0263759,20.835213)"
           fill="url(#linear-gradient-16)"
           opacity="0.21"
           id="rect99"
           style="fill:url(#linear-gradient-16)" />
        <rect
           x="9.3190002"
           y="15.205"
           width="0.78399998"
           height="9.5120001"
           transform="rotate(90.019,9.7112004,19.96158)"
           fill="url(#linear-gradient-17)"
           opacity="0.21"
           id="rect100"
           style="fill:url(#linear-gradient-17)" />
        <rect
           x="10.02"
           y="13.933"
           width="0.78399998"
           height="10.603"
           transform="rotate(88.932,10.412352,19.235066)"
           fill="url(#linear-gradient-18)"
           opacity="0.21"
           id="rect101"
           style="fill:url(#linear-gradient-18)" />
        <rect
           x="11.263"
           y="13.273"
           width="0.764"
           height="10.603"
           transform="rotate(88.932,11.645548,18.57474)"
           fill="url(#linear-gradient-19)"
           opacity="0.21"
           id="rect102"
           style="fill:url(#linear-gradient-19)" />
        <rect
           x="12.097"
           y="13.956"
           width="0.764"
           height="8.2010002"
           transform="rotate(88.932,12.479174,18.056563)"
           fill="url(#linear-gradient-20)"
           opacity="0.14"
           id="rect103"
           style="fill:url(#linear-gradient-20)" />
        <rect
           x="14.343"
           y="12.78"
           width="0.764"
           height="7.7750001"
           transform="rotate(89.613,14.725299,16.667542)"
           fill="url(#linear-gradient-21)"
           opacity="0.09"
           id="rect104"
           style="fill:url(#linear-gradient-21)" />
        <rect
           x="15.405"
           y="11.818"
           width="0.764"
           height="7.7750001"
           transform="rotate(88.795,15.786836,15.705629)"
           fill="url(#linear-gradient-22)"
           opacity="0.11"
           id="rect105"
           style="fill:url(#linear-gradient-22)" />
        <rect
           x="6.1209998"
           y="17.301001"
           width="2"
           height="4.796"
           transform="rotate(18.061,7.1206464,19.6986)"
           fill="url(#linear-gradient-23)"
           opacity="0.31"
           id="rect106"
           style="fill:url(#linear-gradient-23)" />
        <rect
           x="11.221"
           y="15.628"
           width="0.99900001"
           height="5.2059999"
           transform="rotate(2.592,11.711653,18.221006)"
           fill="url(#linear-gradient-24)"
           opacity="0.33"
           id="rect107"
           style="fill:url(#linear-gradient-24)" />
        <rect
           x="8.8730001"
           y="16.917999"
           width="1.999"
           height="5.1479998"
           transform="rotate(6.772,9.8709597,19.489129)"
           fill="url(#linear-gradient-25)"
           opacity="0.33"
           id="rect108"
           style="fill:url(#linear-gradient-25)" />
        <rect
           x="15.582"
           y="12.735"
           width="1.999"
           height="3.924"
           transform="rotate(-16.691,16.579732,14.694971)"
           fill="url(#linear-gradient-26)"
           opacity="0.33"
           id="rect109"
           style="fill:url(#linear-gradient-26)" />
        <rect
           x="15.801"
           y="12.457"
           width="0.51599997"
           height="5.1329999"
           transform="rotate(-9.354,16.059763,15.021777)"
           fill="url(#linear-gradient-27)"
           opacity="0.2"
           id="rect110"
           style="fill:url(#linear-gradient-27)" />
        <rect
           x="15.068"
           y="11.981"
           width="0.5"
           height="6.5250001"
           transform="rotate(-4.946,15.313127,15.240879)"
           fill="url(#linear-gradient-28)"
           opacity="0.15"
           id="rect111"
           style="fill:url(#linear-gradient-28)" />
        <rect
           x="14.302"
           y="12.232"
           width="0.5"
           height="6.8130002"
           transform="rotate(-5.687,14.55216,15.637929)"
           fill="url(#linear-gradient-29)"
           opacity="0.08"
           id="rect112"
           style="fill:url(#linear-gradient-29)" />
        <rect
           x="13.895"
           y="14.99"
           width="0.5"
           height="4.4660001"
           transform="rotate(-1.943,14.1304,17.228137)"
           fill="url(#linear-gradient-30)"
           opacity="0.13"
           id="rect113"
           style="fill:url(#linear-gradient-30)" />
        <rect
           x="13.35"
           y="14.698"
           width="0.75"
           height="4.4840002"
           transform="rotate(-5.796,13.728275,16.944606)"
           fill="url(#linear-gradient-31)"
           opacity="0.2"
           id="rect114"
           style="fill:url(#linear-gradient-31)" />
        <rect
           x="12.905"
           y="15.199"
           width="0.75"
           height="4.4840002"
           transform="rotate(-3.969,13.279777,17.435808)"
           fill="url(#linear-gradient-32)"
           opacity="0.18"
           id="rect115"
           style="fill:url(#linear-gradient-32)" />
        <rect
           x="11.99"
           y="14.771"
           width="0.99900001"
           height="6.849"
           transform="rotate(-0.438,12.488418,18.230819)"
           fill="url(#linear-gradient-33)"
           opacity="0.18"
           id="rect116"
           style="fill:url(#linear-gradient-33)" />
        <rect
           x="10.344"
           y="15.929"
           width="0.78799999"
           height="5.8130002"
           transform="rotate(10.496,10.738359,18.836145)"
           fill="url(#linear-gradient-34)"
           opacity="0.33"
           id="rect117"
           style="fill:url(#linear-gradient-34)" />
        <rect
           x="7.6859999"
           y="16.959999"
           width="2.033"
           height="5.5599999"
           transform="rotate(12.387,8.7011772,19.73974)"
           fill="url(#linear-gradient-35)"
           opacity="0.33"
           id="rect118"
           style="fill:url(#linear-gradient-35)" />
        <rect
           x="7.5749998"
           y="16.815001"
           width="1"
           height="5.7049999"
           transform="rotate(16.401,8.0759268,19.667865)"
           fill="url(#linear-gradient-36)"
           opacity="0.33"
           id="rect119"
           style="fill:url(#linear-gradient-36)" />
        <rect
           x="9.6549997"
           y="16.836"
           width="0.75099999"
           height="6.151"
           transform="rotate(8.421,10.028747,19.910992)"
           fill="url(#linear-gradient-37)"
           opacity="0.59"
           id="rect120"
           style="fill:url(#linear-gradient-37)" />
      </g>
    </g>
  </g>
</svg>
